<svg width="46" height="46" viewBox="0 0 46 46" fill="none" xmlns="http://www.w3.org/2000/svg">
<g clip-path="url(#clip0_98_10211)">
<path d="M14.1876 36.5015H3.11333C2.36907 36.5015 1.76569 37.1048 1.76569 37.8491V44.6521C1.76569 45.3963 2.36907 45.9997 3.11333 45.9997H14.1875L15.8445 41.3054L14.1876 36.5015Z" fill="#B4B9F2"/>
<path d="M23.0001 31.5131L20.3982 28.9548H15.535C14.7912 28.9548 14.1874 29.5577 14.1874 30.3025V45.9998H20.3982L23.0001 42.6464V31.5131Z" fill="#969EEE"/>
<path d="M26.6091 28.9548L30.151 37.4773L26.6091 45.9998H20.3983V28.9548H26.6091Z" fill="#7C83E7"/>
<path d="M42.9272 7.27837L45.6432 4.33063C46.0061 3.93712 46.1014 3.36662 45.8866 2.87698C45.6719 2.38644 45.1877 2.07019 44.6522 2.07019H33.3069V12.2485H44.6522C45.1975 12.2485 45.689 11.9196 45.8974 11.4156C46.1058 10.9116 45.9899 10.3312 45.6036 9.9467L42.9272 7.27837Z" fill="#E62E6B"/>
<path d="M32.8203 19.7656C32.0761 19.7656 31.4727 19.1623 31.4727 18.418V1.34788C31.4727 0.603628 32.0761 0.000244141 32.8203 0.000244141C33.5646 0.000244141 34.168 0.603628 34.168 1.34788V18.418C34.168 19.1623 33.5646 19.7656 32.8203 19.7656Z" fill="#4D578C"/>
<path d="M37.9125 18.418H27.9571C27.2128 18.418 26.6094 19.0214 26.6094 19.7656V45.9997H37.9125C38.6567 45.9997 39.2601 45.3963 39.2601 44.652V19.7656C39.2601 19.0214 38.6567 18.418 37.9125 18.418Z" fill="#5F69E2"/>
<path d="M25.2846 10.3733C22.8414 5.44658 23.0885 5.94323 23.0531 5.8763C22.7723 5.3456 22.1735 5.06457 21.5854 5.18801L16.7921 6.19677C16.0637 6.35004 15.5976 7.06474 15.7508 7.79309C15.8844 8.42783 16.4444 8.86348 17.0682 8.86348C17.1601 8.86348 17.2536 8.85404 17.3471 8.83437L19.5051 8.38021C17.7378 11.849 15.4379 15.0102 12.6446 17.8035C9.22128 21.2269 5.24395 23.9108 0.823056 25.7806C0.137556 26.0706 -0.183093 26.8612 0.10683 27.5467C0.324249 28.061 0.823415 28.3698 1.34864 28.3698C1.52365 28.3698 1.70163 28.3354 1.87296 28.263C6.61512 26.2573 10.8805 23.3795 14.5504 19.7094C17.5415 16.7182 20.0062 13.3325 21.9008 9.61663L22.8698 11.5708C23.2005 12.2376 24.0089 12.51 24.6759 12.1794C25.3427 11.8487 25.6152 11.0401 25.2846 10.3733Z" fill="#FF6666"/>
</g>
<defs>
<clipPath id="clip0_98_10211">
<rect width="46" height="46" fill="white"/>
</clipPath>
</defs>
</svg>
