<svg width="46" height="46" viewBox="0 0 46 46" fill="none" xmlns="http://www.w3.org/2000/svg">
<path d="M20.2824 31.6562L18.5908 36.7347C18.2755 37.6788 17.0708 37.9735 16.3594 37.2611L8.73514 29.635C8.02726 28.9272 8.31377 27.7197 9.26243 27.4035L14.3363 25.7119L18.2216 27.7998L20.2824 31.6562Z" fill="#0066B2"/>
<path d="M20.2824 31.6562L18.5909 36.7346C18.2755 37.6788 17.0709 37.9735 16.3594 37.2611L12.5495 33.4512L18.2081 27.7925L18.2216 27.7997L20.2824 31.6562Z" fill="#004692"/>
<path d="M45.648 1.43103C45.5447 0.889364 45.1162 0.464403 44.5745 0.360184C39.5902 -0.6033 34.5027 0.391899 30.3035 3.03735L35.0671 10.4701L42.95 15.6892C45.597 11.496 46.5993 6.41251 45.648 1.43103Z" fill="#CEE8FF"/>
<path d="M42.9503 15.6887L35.3458 10.6543L45.2716 0.728394C45.462 0.915269 45.5959 1.15875 45.648 1.43088C46.5994 6.41236 45.5968 11.4961 42.9503 15.6887Z" fill="#AEDAFF"/>
<path d="M16.5956 8.86219L23.1112 10.1693L14.2077 19.0765L13.5016 19.1484L9.68811 15.3349L7.78271 17.2412C7.25631 17.7677 6.40289 17.7677 5.8773 17.2421C5.35091 16.7157 5.35001 15.8623 5.8764 15.3358C6.58159 14.6306 9.82459 11.3857 10.5056 10.7048C12.1038 9.10656 14.3803 8.41746 16.5956 8.86219Z" fill="#E63950"/>
<path d="M35.2964 35.476C35.0709 35.7015 30.8648 39.9094 30.6528 40.1214C30.1264 40.6478 29.2739 40.6478 28.7474 40.1214C28.221 39.5959 28.221 38.7424 28.7465 38.216L30.6537 36.3088L26.8416 32.4949L26.8609 31.8405L35.8632 22.8335C36.0384 23.5665 36.2711 25.1764 37.1451 29.4229C37.5737 31.6257 36.8829 33.8887 35.2964 35.476Z" fill="#CD0000"/>
<path d="M12.5682 33.4285C9.76919 30.6283 5.32219 30.71 2.49732 33.536C0.272973 35.7614 -0.0616947 41.7677 0.00829357 44.6775C0.0255436 45.3963 0.604137 45.9749 1.32298 45.9923C4.31927 46.0597 10.25 45.7137 12.4607 43.502C15.277 40.6846 15.3759 36.2373 12.5682 33.4285Z" fill="#FFDA2D"/>
<path d="M12.4605 43.5019C10.2497 45.7137 4.31978 46.0595 1.32286 45.9921C0.963489 45.984 0.639243 45.8349 0.402954 45.5978L12.5701 33.4304C15.3756 36.2396 15.276 40.6856 12.4605 43.5019Z" fill="#FFAA17"/>
<path d="M2.69946 43.2982C2.76846 39.6901 3.46448 36.3807 4.40344 35.4413C6.19412 33.6499 8.93345 33.6044 10.662 35.3338C12.3872 37.0597 12.3401 39.8107 10.5547 41.5968C9.74986 42.4019 6.82482 43.2166 2.69946 43.2982Z" fill="#FFAA17"/>
<path d="M10.5542 41.5964C9.75022 42.4023 6.82697 43.2152 2.7027 43.2979L10.6638 35.3367C12.3869 37.0624 12.3392 39.8113 10.5542 41.5964Z" fill="#FF7900"/>
<path d="M14.3363 25.7118L15.9057 20.9172L25.0634 30.0751L20.2824 31.6562L14.3363 25.7118Z" fill="#EDF5FF"/>
<path d="M25.0634 30.0752L20.2824 31.6563L17.3134 28.6872L20.4944 25.5061L25.0634 30.0752Z" fill="#CEE8FF"/>
<path d="M2.06491 19.1493L0.413219 20.8017C-0.112906 21.3281 -0.112726 22.1813 0.413579 22.7074C0.939704 23.2334 1.79295 23.2336 2.31925 22.7071L3.97094 21.0547C4.49707 20.5283 4.49689 19.6751 3.97058 19.149C3.44428 18.6228 2.59103 18.6229 2.06491 19.1493Z" fill="#E63950"/>
<path d="M26.8409 42.0289C26.3145 41.5026 25.4614 41.5027 24.9353 42.0292L23.2836 43.6816C22.7575 44.208 22.7576 45.0612 23.2839 45.5873C23.8101 46.1132 24.6633 46.1135 25.1896 45.5869L26.8413 43.9345C27.3674 43.4081 27.3672 42.555 26.8409 42.0289Z" fill="#CD0000"/>
<path d="M26.852 5.7925L18.2649 14.3832L23.0017 22.9987L31.6063 27.7278L40.2104 19.1196C41.2601 18.0694 42.1749 16.917 42.95 15.6892C39.315 12.0526 33.7466 6.48178 30.3035 3.03735C29.0679 3.81585 27.9084 4.73576 26.852 5.7925Z" fill="#EDF5FF"/>
<path d="M42.9503 15.6888C42.175 16.9169 41.2605 18.0695 40.2103 19.1197L31.606 27.7277L23.0016 22.9988L36.6323 9.36804C38.8835 11.6211 41.1527 13.8912 42.9503 15.6888Z" fill="#CEE8FF"/>
<path d="M13.5017 19.1484L26.8448 32.4916L31.6062 27.7278L18.2649 14.3832L13.5017 19.1484Z" fill="#CEE8FF"/>
<path d="M31.606 27.7276L26.8448 32.4916L20.1773 25.824L24.9403 21.0601L31.606 27.7276Z" fill="#AEDAFF"/>
<path d="M39.4517 6.53368C37.8719 4.95315 35.3141 4.95279 33.7339 6.53368C32.1579 8.11035 32.158 10.6757 33.7339 12.2522C35.3136 13.8328 37.8716 13.8332 39.4517 12.2522C41.0277 10.6757 41.0278 8.11035 39.4517 6.53368Z" fill="#4EC9FF"/>
<path d="M39.4521 12.2526C37.8746 13.8301 35.3215 13.8328 33.7414 12.2589L39.4593 6.54089C41.0278 8.11837 41.0251 10.6786 39.4521 12.2526Z" fill="#0095FF"/>
<path d="M37.5457 10.3469C37.0191 10.8737 36.1668 10.8739 35.6399 10.3469C35.1142 9.82088 35.1142 8.96502 35.6399 8.43899C36.1664 7.91224 37.0189 7.91197 37.5456 8.43899C38.0715 8.96494 38.0715 9.82088 37.5457 10.3469Z" fill="#9BFCFF"/>
<path d="M37.5458 10.3472C37.0221 10.8709 36.1741 10.8736 35.6467 10.3534L37.553 8.44714C38.0714 8.97363 38.0687 9.82346 37.5458 10.3472Z" fill="#4EC9FF"/>
</svg>
