<svg width="46" height="46" viewBox="0 0 46 46" fill="none" xmlns="http://www.w3.org/2000/svg">
<g clip-path="url(#clip0_98_10227)">
<path d="M44.3819 6.73556V32.7489C44.3819 34.8216 42.7018 36.5017 40.6291 36.5017H5.10043C3.02773 36.5017 1.34766 34.8216 1.34766 32.7489V6.73556C1.34766 4.66287 3.02773 2.98279 5.10043 2.98279H40.6291C42.7018 2.98279 44.3819 4.66287 44.3819 6.73556Z" fill="#F5F8F9"/>
<path d="M44.3819 6.73556V32.7489C44.3819 34.8216 42.7018 36.5017 40.6291 36.5017H23V2.98279H40.6291C42.7018 2.98279 44.3819 4.66287 44.3819 6.73556Z" fill="#DBE1E8"/>
<path d="M35.4541 44.6523C35.4541 45.3962 34.8513 46 34.1065 46H11.8935C11.1487 46 10.5459 45.3962 10.5459 44.6523C10.5459 43.9084 11.1487 43.3047 11.8935 43.3047H15.6301L17.1925 36.2744C17.3291 35.6572 17.8762 35.2188 18.5078 35.2188H27.4922C28.1238 35.2188 28.6709 35.6572 28.8075 36.2744L30.3699 43.3047H34.1065C34.8513 43.3047 35.4541 43.9084 35.4541 44.6523Z" fill="#4D578C"/>
<path d="M35.4541 44.6523C35.4541 45.3962 34.8513 46 34.1065 46H23V35.2188H27.4922C28.1238 35.2188 28.6709 35.6572 28.8075 36.2744L30.3699 43.3047H34.1065C34.8513 43.3047 35.4541 43.9084 35.4541 44.6523Z" fill="#333E73"/>
<path d="M12.1738 29.266C13.8963 29.266 15.2927 27.8696 15.2927 26.1472C15.2927 24.4247 13.8963 23.0283 12.1738 23.0283C10.4513 23.0283 9.05499 24.4247 9.05499 26.1472C9.05499 27.8696 10.4513 29.266 12.1738 29.266Z" fill="#FFDDCE"/>
<path d="M12.1738 29.2659C8.94628 29.2659 6.32976 31.8823 6.32976 35.1099V37.167H18.0179V35.1099C18.0179 31.8823 15.4014 29.2659 12.1738 29.2659Z" fill="#2EE6A8"/>
<path d="M33.8262 29.266C35.5487 29.266 36.945 27.8696 36.945 26.1472C36.945 24.4247 35.5487 23.0283 33.8262 23.0283C32.1037 23.0283 30.7073 24.4247 30.7073 26.1472C30.7073 27.8696 32.1037 29.266 33.8262 29.266Z" fill="#FFBDA9"/>
<path d="M33.8262 29.2659C30.5986 29.2659 27.9821 31.8823 27.9821 35.1099V37.167H39.6702V35.1099C39.6702 31.8823 37.0537 29.2659 33.8262 29.2659Z" fill="#7C83E7"/>
<path d="M12.1738 12.1956C13.8963 12.1956 15.2927 10.7992 15.2927 9.07672C15.2927 7.35424 13.8963 5.95789 12.1738 5.95789C10.4513 5.95789 9.05499 7.35424 9.05499 9.07672C9.05499 10.7992 10.4513 12.1956 12.1738 12.1956Z" fill="#FFDDCE"/>
<path d="M12.1738 12.1957C8.94628 12.1957 6.32976 14.8121 6.32976 18.0397V20.0968H18.0179V18.0397C18.0179 14.8121 15.4014 12.1957 12.1738 12.1957Z" fill="#FFB555"/>
<path d="M33.8262 12.1956C35.5487 12.1956 36.945 10.7992 36.945 9.07672C36.945 7.35424 35.5487 5.95789 33.8262 5.95789C32.1037 5.95789 30.7073 7.35424 30.7073 9.07672C30.7073 10.7992 32.1037 12.1956 33.8262 12.1956Z" fill="#FFBDA9"/>
<path d="M33.8262 12.1957C30.5986 12.1957 27.9821 14.8121 27.9821 18.0397V20.0968H39.6702V18.0397C39.6702 14.8121 37.0537 12.1957 33.8262 12.1957Z" fill="#E62E6B"/>
<path d="M23.2555 36.4182V5.4156C23.1727 5.39961 23.0874 5.39062 23 5.39062C22.2561 5.39062 21.6523 5.99437 21.6523 6.73828V18.5078H1.64055V21.2031H21.6523V36.4182H23.2555Z" fill="#B4B9F2"/>
<path d="M44.3819 18.5078V21.2031H24.3477V36.4182H23V5.39062C23.7439 5.39062 24.3477 5.99437 24.3477 6.73828V18.5078H44.3819Z" fill="#7C83E7"/>
<path d="M24.5962 36.6822L23 35.2188H4.3134C3.42125 35.2188 2.69531 34.4928 2.69531 33.6007V6.11027C2.69531 5.21813 3.42125 4.49219 4.3134 4.49219H20.4592C21.2031 4.49219 21.8069 3.88844 21.8069 3.14453C21.8069 2.40063 21.2031 1.79688 20.4592 1.79688H4.3134C1.93523 1.79688 0 3.73211 0 6.11027V33.6007C0 35.9788 1.93523 37.9141 4.3134 37.9141H23L24.5962 36.6822Z" fill="#7C83E7"/>
<path d="M46 6.11027V33.6007C46 35.9788 44.0648 37.9141 41.6866 37.9141H23V35.2188H41.6866C42.5787 35.2188 43.3047 34.4928 43.3047 33.6007V6.11027C43.3047 5.21813 42.5787 4.49219 41.6866 4.49219H25.5408C24.7969 4.49219 24.1931 3.88844 24.1931 3.14453C24.1931 2.40063 24.7969 1.79688 25.5408 1.79688H41.6866C44.0648 1.79688 46 3.73211 46 6.11027Z" fill="#5F69E2"/>
<path d="M24.7865 5.83439C25.7747 4.84616 25.7747 3.24393 24.7865 2.2557C23.7982 1.26747 22.196 1.26747 21.2078 2.2557C20.2196 3.24393 20.2196 4.84616 21.2078 5.83439C22.196 6.82262 23.7982 6.82262 24.7865 5.83439Z" fill="#F5F8F9"/>
<path d="M25.5309 4.04298C25.5309 5.43826 24.3953 6.57388 23 6.57388V1.51208C24.3953 1.51208 25.5309 2.64771 25.5309 4.04298Z" fill="#DBE1E8"/>
<path d="M23 0C20.771 0 18.957 1.81395 18.957 4.04297C18.957 6.27199 20.771 8.08594 23 8.08594C25.229 8.08594 27.043 6.27199 27.043 4.04297C27.043 1.81395 25.229 0 23 0ZM23 5.39062C22.257 5.39062 21.6523 4.78598 21.6523 4.04297C21.6523 3.29996 22.257 2.69531 23 2.69531C23.743 2.69531 24.3477 3.29996 24.3477 4.04297C24.3477 4.78598 23.743 5.39062 23 5.39062Z" fill="#4D578C"/>
<path d="M27.043 4.04297C27.043 6.27199 25.229 8.08594 23 8.08594V5.39062C23.743 5.39062 24.3477 4.78598 24.3477 4.04297C24.3477 3.29996 23.743 2.69531 23 2.69531V0C25.229 0 27.043 1.81395 27.043 4.04297Z" fill="#333E73"/>
</g>
<defs>
<clipPath id="clip0_98_10227">
<rect width="46" height="46" fill="white"/>
</clipPath>
</defs>
</svg>
